# xmcd
#
# Track frame offsets: 
#        150
#        20615
#        35900
#        57247
#        72125
#        89785
#        110097
#        130237
#        152087
#        169175
#        190602
#        212280
#        227402
#        247000
#        271947
#        282317
#
# Disc length: 4081 seconds
#
# Revision: 2
# Processed by: cddbd v1.5.2PL0 Copyright (c) Steve Scherf et al.
# Submitted via: ExactAudioCopyFreeDBPlugin 1.0
#
DISCID=e60fef10
DTITLE=Santana - Best Ballads
DYEAR=1996
DGENRE=Rock
TTITLE0=Samba Pa Ti
TTITLE1=Europa(Earth's Cry Heaven's Smile)
TTITLE2=I Love You Much to Much
TTITLE3=Black Magic Woman
TTITLE4=Love is You
TTITLE5=Full Moon
TTITLE6=Gypsy Woman
TTITLE7=Flor D'luna(Moonflower)
TTITLE8=Life is a Lady
TTITLE9=She Can't Let Go
TTITLE10=The River
TTITLE11=Bella
TTITLE12=Give Me Love
TTITLE13=Aqua Marine
TTITLE14=Meditation
TTITLE15=One With You
EXTD=
EXTT0=
EXTT1=
EXTT2=
EXTT3=
EXTT4=
EXTT5=
EXTT6=
EXTT7=
EXTT8=
EXTT9=
EXTT10=
EXTT11=
EXTT12=
EXTT13=
EXTT14=
EXTT15=
PLAYORDER=
